<mxfile host="app.diagrams.net" agent="Mozilla/5.0 (Windows NT 10.0; Win64; x64) AppleWebKit/537.36 (KHTML, like Gecko) Chrome/132.0.0.0 Safari/537.36" version="24.8.0">
  <diagram name="第 1 页" id="CsyrJfl29s9d7gs8j59t">
    <mxGraphModel dx="1744" dy="971" grid="1" gridSize="10" guides="1" tooltips="1" connect="1" arrows="1" fold="1" page="1" pageScale="1" pageWidth="827" pageHeight="1169" math="0" shadow="0">
      <root>
        <mxCell id="0" />
        <mxCell id="1" parent="0" />
        <mxCell id="HTVJt9KxL0Byug9yU5Ul-193" value="" style="rounded=1;whiteSpace=wrap;html=1;" parent="1" vertex="1">
          <mxGeometry x="314.25" y="130" width="262.5" height="140" as="geometry" />
        </mxCell>
        <mxCell id="HTVJt9KxL0Byug9yU5Ul-169" value="" style="rounded=1;whiteSpace=wrap;html=1;" parent="1" vertex="1">
          <mxGeometry x="283" y="280" width="1148" height="390" as="geometry" />
        </mxCell>
        <mxCell id="HTVJt9KxL0Byug9yU5Ul-167" value="" style="whiteSpace=wrap;html=1;dashed=1;strokeWidth=4;" parent="1" vertex="1">
          <mxGeometry x="664" y="331.5" width="679" height="298.5" as="geometry" />
        </mxCell>
        <mxCell id="HTVJt9KxL0Byug9yU5Ul-94" value="" style="shape=parallelogram;perimeter=parallelogramPerimeter;whiteSpace=wrap;html=1;fixedSize=1;rotation=90;size=20;fillColor=#D5E8D4;gradientColor=none;" parent="1" vertex="1">
          <mxGeometry x="807" y="365" width="60" height="20" as="geometry" />
        </mxCell>
        <mxCell id="HTVJt9KxL0Byug9yU5Ul-95" value="" style="shape=parallelogram;perimeter=parallelogramPerimeter;whiteSpace=wrap;html=1;fixedSize=1;rotation=90;size=20;fillColor=#D5E8D4;gradientColor=none;" parent="1" vertex="1">
          <mxGeometry x="827" y="385" width="60" height="20" as="geometry" />
        </mxCell>
        <mxCell id="HTVJt9KxL0Byug9yU5Ul-96" value="" style="shape=parallelogram;perimeter=parallelogramPerimeter;whiteSpace=wrap;html=1;fixedSize=1;rotation=90;size=20;fillColor=#F8CECC;gradientColor=none;" parent="1" vertex="1">
          <mxGeometry x="827" y="425" width="60" height="20" as="geometry" />
        </mxCell>
        <mxCell id="HTVJt9KxL0Byug9yU5Ul-97" value="" style="shape=parallelogram;perimeter=parallelogramPerimeter;whiteSpace=wrap;html=1;fixedSize=1;rotation=90;size=20;fillColor=#F8CECC;gradientColor=none;" parent="1" vertex="1">
          <mxGeometry x="807" y="405" width="60" height="20" as="geometry" />
        </mxCell>
        <mxCell id="HTVJt9KxL0Byug9yU5Ul-90" value="" style="shape=parallelogram;perimeter=parallelogramPerimeter;whiteSpace=wrap;html=1;fixedSize=1;rotation=90;size=20;fillColor=#D5E8D4;gradientColor=none;" parent="1" vertex="1">
          <mxGeometry x="780" y="365" width="60" height="20" as="geometry" />
        </mxCell>
        <mxCell id="HTVJt9KxL0Byug9yU5Ul-91" value="" style="shape=parallelogram;perimeter=parallelogramPerimeter;whiteSpace=wrap;html=1;fixedSize=1;rotation=90;size=20;fillColor=#F8CECC;gradientColor=none;" parent="1" vertex="1">
          <mxGeometry x="800" y="385" width="60" height="20" as="geometry" />
        </mxCell>
        <mxCell id="HTVJt9KxL0Byug9yU5Ul-92" value="" style="shape=parallelogram;perimeter=parallelogramPerimeter;whiteSpace=wrap;html=1;fixedSize=1;rotation=90;size=20;fillColor=#F8CECC;gradientColor=none;" parent="1" vertex="1">
          <mxGeometry x="800" y="425" width="60" height="20" as="geometry" />
        </mxCell>
        <mxCell id="HTVJt9KxL0Byug9yU5Ul-93" value="" style="shape=parallelogram;perimeter=parallelogramPerimeter;whiteSpace=wrap;html=1;fixedSize=1;rotation=90;size=20;fillColor=#D5E8D4;gradientColor=none;" parent="1" vertex="1">
          <mxGeometry x="780" y="405" width="60" height="20" as="geometry" />
        </mxCell>
        <mxCell id="HTVJt9KxL0Byug9yU5Ul-5" value="" style="shape=parallelogram;perimeter=parallelogramPerimeter;whiteSpace=wrap;html=1;fixedSize=1;rotation=90;size=20;fillColor=#D5E8D4;gradientColor=none;" parent="1" vertex="1">
          <mxGeometry x="292" y="315" width="60" height="20" as="geometry" />
        </mxCell>
        <mxCell id="HTVJt9KxL0Byug9yU5Ul-6" value="" style="shape=parallelogram;perimeter=parallelogramPerimeter;whiteSpace=wrap;html=1;fixedSize=1;rotation=90;size=20;fillColor=#D5E8D4;gradientColor=none;" parent="1" vertex="1">
          <mxGeometry x="312" y="335" width="60" height="20" as="geometry" />
        </mxCell>
        <mxCell id="HTVJt9KxL0Byug9yU5Ul-7" value="" style="shape=parallelogram;perimeter=parallelogramPerimeter;whiteSpace=wrap;html=1;fixedSize=1;rotation=90;size=20;fillColor=#F8CECC;" parent="1" vertex="1">
          <mxGeometry x="332" y="355" width="60" height="20" as="geometry" />
        </mxCell>
        <mxCell id="HTVJt9KxL0Byug9yU5Ul-8" value="" style="shape=parallelogram;perimeter=parallelogramPerimeter;whiteSpace=wrap;html=1;fixedSize=1;rotation=90;size=20;fillColor=#F8CECC;" parent="1" vertex="1">
          <mxGeometry x="332" y="395" width="60" height="20" as="geometry" />
        </mxCell>
        <mxCell id="HTVJt9KxL0Byug9yU5Ul-9" value="" style="shape=parallelogram;perimeter=parallelogramPerimeter;whiteSpace=wrap;html=1;fixedSize=1;rotation=90;size=20;fillColor=#D5E8D4;gradientColor=none;" parent="1" vertex="1">
          <mxGeometry x="312" y="375" width="60" height="20" as="geometry" />
        </mxCell>
        <mxCell id="HTVJt9KxL0Byug9yU5Ul-10" value="" style="shape=parallelogram;perimeter=parallelogramPerimeter;whiteSpace=wrap;html=1;fixedSize=1;rotation=90;size=20;fillColor=#D5E8D4;gradientColor=none;" parent="1" vertex="1">
          <mxGeometry x="292" y="355" width="60" height="20" as="geometry" />
        </mxCell>
        <mxCell id="HTVJt9KxL0Byug9yU5Ul-11" value="" style="shape=parallelogram;perimeter=parallelogramPerimeter;whiteSpace=wrap;html=1;fixedSize=1;rotation=90;size=20;fillColor=#F8CECC;" parent="1" vertex="1">
          <mxGeometry x="292" y="395" width="60" height="20" as="geometry" />
        </mxCell>
        <mxCell id="HTVJt9KxL0Byug9yU5Ul-12" value="" style="shape=parallelogram;perimeter=parallelogramPerimeter;whiteSpace=wrap;html=1;fixedSize=1;rotation=90;size=20;fillColor=#F8CECC;" parent="1" vertex="1">
          <mxGeometry x="312" y="415" width="60" height="20" as="geometry" />
        </mxCell>
        <mxCell id="HTVJt9KxL0Byug9yU5Ul-13" value="" style="shape=parallelogram;perimeter=parallelogramPerimeter;whiteSpace=wrap;html=1;fixedSize=1;rotation=90;size=20;fillColor=#F8CECC;" parent="1" vertex="1">
          <mxGeometry x="332" y="435" width="60" height="20" as="geometry" />
        </mxCell>
        <mxCell id="HTVJt9KxL0Byug9yU5Ul-18" value="" style="verticalLabelPosition=bottom;verticalAlign=top;html=1;shape=mxgraph.basic.8_point_star;rotation=30;fillColor=#67AB9F;" parent="1" vertex="1">
          <mxGeometry x="319" y="335" width="25" height="40" as="geometry" />
        </mxCell>
        <mxCell id="HTVJt9KxL0Byug9yU5Ul-19" value="" style="shape=parallelogram;perimeter=parallelogramPerimeter;whiteSpace=wrap;html=1;fixedSize=1;rotation=90;size=20;fillColor=#D5E8D4;gradientColor=none;" parent="1" vertex="1">
          <mxGeometry x="395.5" y="560" width="60" height="20" as="geometry" />
        </mxCell>
        <mxCell id="HTVJt9KxL0Byug9yU5Ul-20" value="" style="shape=parallelogram;perimeter=parallelogramPerimeter;whiteSpace=wrap;html=1;fixedSize=1;rotation=90;size=20;fillColor=#D5E8D4;gradientColor=none;" parent="1" vertex="1">
          <mxGeometry x="415.5" y="580" width="60" height="20" as="geometry" />
        </mxCell>
        <mxCell id="HTVJt9KxL0Byug9yU5Ul-23" value="" style="shape=parallelogram;perimeter=parallelogramPerimeter;whiteSpace=wrap;html=1;fixedSize=1;rotation=90;size=20;fillColor=#D5E8D4;gradientColor=none;" parent="1" vertex="1">
          <mxGeometry x="415.5" y="620" width="60" height="20" as="geometry" />
        </mxCell>
        <mxCell id="HTVJt9KxL0Byug9yU5Ul-24" value="" style="shape=parallelogram;perimeter=parallelogramPerimeter;whiteSpace=wrap;html=1;fixedSize=1;rotation=90;size=20;fillColor=#D5E8D4;gradientColor=none;" parent="1" vertex="1">
          <mxGeometry x="395.5" y="600" width="60" height="20" as="geometry" />
        </mxCell>
        <mxCell id="HTVJt9KxL0Byug9yU5Ul-28" value="" style="verticalLabelPosition=bottom;verticalAlign=top;html=1;shape=mxgraph.basic.8_point_star;rotation=30;fillColor=#67AB9F;" parent="1" vertex="1">
          <mxGeometry x="422.5" y="580" width="25" height="40" as="geometry" />
        </mxCell>
        <mxCell id="HTVJt9KxL0Byug9yU5Ul-29" value="" style="shape=parallelogram;perimeter=parallelogramPerimeter;whiteSpace=wrap;html=1;fixedSize=1;rotation=90;size=20;fillColor=#D5E8D4;gradientColor=none;" parent="1" vertex="1">
          <mxGeometry x="415.5" y="540" width="60" height="20" as="geometry" />
        </mxCell>
        <mxCell id="HTVJt9KxL0Byug9yU5Ul-30" value="" style="shape=parallelogram;perimeter=parallelogramPerimeter;whiteSpace=wrap;html=1;fixedSize=1;rotation=90;size=20;fillColor=#D5E8D4;gradientColor=none;" parent="1" vertex="1">
          <mxGeometry x="395.5" y="520" width="60" height="20" as="geometry" />
        </mxCell>
        <mxCell id="HTVJt9KxL0Byug9yU5Ul-31" value="" style="shape=parallelogram;perimeter=parallelogramPerimeter;whiteSpace=wrap;html=1;fixedSize=1;rotation=90;size=20;fillColor=#D5E8D4;gradientColor=none;" parent="1" vertex="1">
          <mxGeometry x="375.5" y="500" width="60" height="20" as="geometry" />
        </mxCell>
        <mxCell id="HTVJt9KxL0Byug9yU5Ul-32" value="" style="shape=parallelogram;perimeter=parallelogramPerimeter;whiteSpace=wrap;html=1;fixedSize=1;rotation=90;size=20;fillColor=#D5E8D4;gradientColor=none;" parent="1" vertex="1">
          <mxGeometry x="375.5" y="540" width="60" height="20" as="geometry" />
        </mxCell>
        <mxCell id="HTVJt9KxL0Byug9yU5Ul-34" value="" style="shape=parallelogram;perimeter=parallelogramPerimeter;whiteSpace=wrap;html=1;fixedSize=1;rotation=90;size=20;fillColor=#D5E8D4;gradientColor=none;" parent="1" vertex="1">
          <mxGeometry x="375.5" y="580" width="60" height="20" as="geometry" />
        </mxCell>
        <mxCell id="HTVJt9KxL0Byug9yU5Ul-40" style="edgeStyle=orthogonalEdgeStyle;rounded=0;orthogonalLoop=1;jettySize=auto;html=1;exitX=0;exitY=0.5;exitDx=0;exitDy=0;startArrow=classic;startFill=1;endArrow=none;endFill=0;strokeWidth=2;" parent="1" edge="1">
          <mxGeometry relative="1" as="geometry">
            <mxPoint x="402.5" y="404.9" as="sourcePoint" />
            <mxPoint x="377" y="404.9" as="targetPoint" />
          </mxGeometry>
        </mxCell>
        <mxCell id="HTVJt9KxL0Byug9yU5Ul-37" value="" style="rounded=0;whiteSpace=wrap;html=1;fillColor=#B3B3B3;" parent="1" vertex="1">
          <mxGeometry x="405.5" y="340" width="50" height="130" as="geometry" />
        </mxCell>
        <mxCell id="HTVJt9KxL0Byug9yU5Ul-38" value="Receptive Field Movement Analyzer" style="text;html=1;align=center;verticalAlign=middle;whiteSpace=wrap;rounded=0;rotation=-90;" parent="1" vertex="1">
          <mxGeometry x="377.5" y="390" width="108" height="30" as="geometry" />
        </mxCell>
        <mxCell id="HTVJt9KxL0Byug9yU5Ul-41" value="&lt;font style=&quot;font-size: 15px;&quot;&gt;Input Image&lt;/font&gt;" style="text;html=1;align=center;verticalAlign=middle;whiteSpace=wrap;rounded=0;" parent="1" vertex="1">
          <mxGeometry x="290" y="480" width="87" height="30" as="geometry" />
        </mxCell>
        <mxCell id="HTVJt9KxL0Byug9yU5Ul-42" value="&lt;font style=&quot;font-size: 15px;&quot;&gt;Cached Image&lt;/font&gt;" style="text;html=1;align=center;verticalAlign=middle;whiteSpace=wrap;rounded=0;" parent="1" vertex="1">
          <mxGeometry x="312.5" y="630" width="110" height="30" as="geometry" />
        </mxCell>
        <mxCell id="HTVJt9KxL0Byug9yU5Ul-44" value="" style="shape=parallelogram;perimeter=parallelogramPerimeter;whiteSpace=wrap;html=1;fixedSize=1;rotation=90;size=20;fillColor=#F8CECC;" parent="1" vertex="1">
          <mxGeometry x="510" y="355" width="60" height="20" as="geometry" />
        </mxCell>
        <mxCell id="HTVJt9KxL0Byug9yU5Ul-45" value="" style="shape=parallelogram;perimeter=parallelogramPerimeter;whiteSpace=wrap;html=1;fixedSize=1;rotation=90;size=20;fillColor=#F8CECC;" parent="1" vertex="1">
          <mxGeometry x="510" y="395" width="60" height="20" as="geometry" />
        </mxCell>
        <mxCell id="HTVJt9KxL0Byug9yU5Ul-46" value="" style="shape=parallelogram;perimeter=parallelogramPerimeter;whiteSpace=wrap;html=1;fixedSize=1;rotation=90;size=20;fillColor=#F8CECC;" parent="1" vertex="1">
          <mxGeometry x="470" y="395" width="60" height="20" as="geometry" />
        </mxCell>
        <mxCell id="HTVJt9KxL0Byug9yU5Ul-47" value="" style="shape=parallelogram;perimeter=parallelogramPerimeter;whiteSpace=wrap;html=1;fixedSize=1;rotation=90;size=20;fillColor=#F8CECC;" parent="1" vertex="1">
          <mxGeometry x="490" y="415" width="60" height="20" as="geometry" />
        </mxCell>
        <mxCell id="HTVJt9KxL0Byug9yU5Ul-48" value="" style="shape=parallelogram;perimeter=parallelogramPerimeter;whiteSpace=wrap;html=1;fixedSize=1;rotation=90;size=20;fillColor=#F8CECC;" parent="1" vertex="1">
          <mxGeometry x="510" y="435" width="60" height="20" as="geometry" />
        </mxCell>
        <mxCell id="HTVJt9KxL0Byug9yU5Ul-49" value="&lt;font style=&quot;font-size: 15px;&quot;&gt;RFM Recompute Pixels&lt;/font&gt;" style="text;html=1;align=center;verticalAlign=middle;whiteSpace=wrap;rounded=0;" parent="1" vertex="1">
          <mxGeometry x="480" y="480" width="120" height="30" as="geometry" />
        </mxCell>
        <mxCell id="HTVJt9KxL0Byug9yU5Ul-50" value="" style="shape=parallelogram;perimeter=parallelogramPerimeter;whiteSpace=wrap;html=1;fixedSize=1;rotation=90;size=20;dashed=1;" parent="1" vertex="1">
          <mxGeometry x="470" y="355" width="60" height="20" as="geometry" />
        </mxCell>
        <mxCell id="HTVJt9KxL0Byug9yU5Ul-51" value="" style="shape=parallelogram;perimeter=parallelogramPerimeter;whiteSpace=wrap;html=1;fixedSize=1;rotation=90;size=20;dashed=1;" parent="1" vertex="1">
          <mxGeometry x="490" y="375" width="60" height="20" as="geometry" />
        </mxCell>
        <mxCell id="HTVJt9KxL0Byug9yU5Ul-52" value="" style="shape=parallelogram;perimeter=parallelogramPerimeter;whiteSpace=wrap;html=1;fixedSize=1;rotation=90;size=20;dashed=1;" parent="1" vertex="1">
          <mxGeometry x="490" y="335" width="60" height="20" as="geometry" />
        </mxCell>
        <mxCell id="HTVJt9KxL0Byug9yU5Ul-53" value="" style="shape=parallelogram;perimeter=parallelogramPerimeter;whiteSpace=wrap;html=1;fixedSize=1;rotation=90;size=20;dashed=1;" parent="1" vertex="1">
          <mxGeometry x="470" y="315" width="60" height="20" as="geometry" />
        </mxCell>
        <mxCell id="HTVJt9KxL0Byug9yU5Ul-55" value="" style="rhombus;whiteSpace=wrap;html=1;fillColor=#B3B3B3;" parent="1" vertex="1">
          <mxGeometry x="590" y="322.5" width="60" height="165" as="geometry" />
        </mxCell>
        <mxCell id="HTVJt9KxL0Byug9yU5Ul-57" style="edgeStyle=orthogonalEdgeStyle;rounded=0;orthogonalLoop=1;jettySize=auto;html=1;exitX=0;exitY=0.5;exitDx=0;exitDy=0;startArrow=classic;startFill=1;endArrow=none;endFill=0;strokeWidth=2;" parent="1" edge="1">
          <mxGeometry relative="1" as="geometry">
            <mxPoint x="485.5" y="404.9" as="sourcePoint" />
            <mxPoint x="460" y="404.9" as="targetPoint" />
          </mxGeometry>
        </mxCell>
        <mxCell id="HTVJt9KxL0Byug9yU5Ul-58" style="edgeStyle=orthogonalEdgeStyle;rounded=0;orthogonalLoop=1;jettySize=auto;html=1;exitX=0;exitY=0.5;exitDx=0;exitDy=0;startArrow=classic;startFill=1;endArrow=none;endFill=0;strokeWidth=2;" parent="1" edge="1">
          <mxGeometry relative="1" as="geometry">
            <mxPoint x="584.5" y="404.91999999999996" as="sourcePoint" />
            <mxPoint x="559" y="404.91999999999996" as="targetPoint" />
          </mxGeometry>
        </mxCell>
        <mxCell id="HTVJt9KxL0Byug9yU5Ul-59" value="Collabrative Offload Scheduler" style="text;html=1;align=center;verticalAlign=middle;whiteSpace=wrap;rounded=0;rotation=-90;" parent="1" vertex="1">
          <mxGeometry x="570" y="390" width="108" height="30" as="geometry" />
        </mxCell>
        <mxCell id="HTVJt9KxL0Byug9yU5Ul-60" value="" style="rounded=0;whiteSpace=wrap;html=1;fillColor=#B3B3B3;" parent="1" vertex="1">
          <mxGeometry x="688" y="340" width="32" height="130" as="geometry" />
        </mxCell>
        <mxCell id="HTVJt9KxL0Byug9yU5Ul-61" value="Input Constructor" style="text;html=1;align=center;verticalAlign=middle;whiteSpace=wrap;rounded=0;rotation=-90;" parent="1" vertex="1">
          <mxGeometry x="650" y="390" width="108" height="30" as="geometry" />
        </mxCell>
        <mxCell id="HTVJt9KxL0Byug9yU5Ul-62" style="edgeStyle=orthogonalEdgeStyle;rounded=0;orthogonalLoop=1;jettySize=auto;html=1;exitX=0;exitY=0.5;exitDx=0;exitDy=0;startArrow=classic;startFill=1;endArrow=none;endFill=0;strokeWidth=2;" parent="1" edge="1">
          <mxGeometry relative="1" as="geometry">
            <mxPoint x="678" y="404.79999999999995" as="sourcePoint" />
            <mxPoint x="652.5" y="404.79999999999995" as="targetPoint" />
          </mxGeometry>
        </mxCell>
        <mxCell id="HTVJt9KxL0Byug9yU5Ul-74" value="" style="shape=parallelogram;perimeter=parallelogramPerimeter;whiteSpace=wrap;html=1;fixedSize=1;rotation=90;size=20;fillColor=#D5E8D4;gradientColor=none;" parent="1" vertex="1">
          <mxGeometry x="747" y="365" width="60" height="20" as="geometry" />
        </mxCell>
        <mxCell id="HTVJt9KxL0Byug9yU5Ul-75" value="" style="shape=parallelogram;perimeter=parallelogramPerimeter;whiteSpace=wrap;html=1;fixedSize=1;rotation=90;size=20;fillColor=#F8CECC;gradientColor=none;" parent="1" vertex="1">
          <mxGeometry x="767" y="385" width="60" height="20" as="geometry" />
        </mxCell>
        <mxCell id="HTVJt9KxL0Byug9yU5Ul-78" value="" style="shape=parallelogram;perimeter=parallelogramPerimeter;whiteSpace=wrap;html=1;fixedSize=1;rotation=90;size=20;fillColor=#F8CECC;gradientColor=none;" parent="1" vertex="1">
          <mxGeometry x="767" y="425" width="60" height="20" as="geometry" />
        </mxCell>
        <mxCell id="HTVJt9KxL0Byug9yU5Ul-79" value="" style="shape=parallelogram;perimeter=parallelogramPerimeter;whiteSpace=wrap;html=1;fixedSize=1;rotation=90;size=20;fillColor=#F8CECC;gradientColor=none;" parent="1" vertex="1">
          <mxGeometry x="747" y="405" width="60" height="20" as="geometry" />
        </mxCell>
        <mxCell id="HTVJt9KxL0Byug9yU5Ul-84" value="&lt;font style=&quot;font-size: 15px;&quot;&gt;Tiled Partial Inference Input&lt;/font&gt;" style="text;html=1;align=center;verticalAlign=middle;whiteSpace=wrap;rounded=0;" parent="1" vertex="1">
          <mxGeometry x="765" y="480" width="105" height="30" as="geometry" />
        </mxCell>
        <mxCell id="HTVJt9KxL0Byug9yU5Ul-85" style="edgeStyle=orthogonalEdgeStyle;rounded=0;orthogonalLoop=1;jettySize=auto;html=1;exitX=0;exitY=0.5;exitDx=0;exitDy=0;startArrow=classic;startFill=1;endArrow=none;endFill=0;strokeWidth=2;" parent="1" edge="1">
          <mxGeometry relative="1" as="geometry">
            <mxPoint x="758" y="404.80999999999995" as="sourcePoint" />
            <mxPoint x="732.5" y="404.80999999999995" as="targetPoint" />
          </mxGeometry>
        </mxCell>
        <mxCell id="HTVJt9KxL0Byug9yU5Ul-98" style="edgeStyle=orthogonalEdgeStyle;rounded=0;orthogonalLoop=1;jettySize=auto;html=1;exitX=0;exitY=0.5;exitDx=0;exitDy=0;startArrow=classic;startFill=1;endArrow=none;endFill=0;strokeWidth=2;" parent="1" edge="1">
          <mxGeometry relative="1" as="geometry">
            <mxPoint x="905.5" y="404.73999999999995" as="sourcePoint" />
            <mxPoint x="880" y="404.73999999999995" as="targetPoint" />
          </mxGeometry>
        </mxCell>
        <mxCell id="HTVJt9KxL0Byug9yU5Ul-99" value="&lt;font style=&quot;font-size: 15px;&quot;&gt;Intermediate Inference&lt;/font&gt;" style="text;html=1;align=center;verticalAlign=middle;whiteSpace=wrap;rounded=0;" parent="1" vertex="1">
          <mxGeometry x="902.5" y="480" width="85" height="30" as="geometry" />
        </mxCell>
        <mxCell id="HTVJt9KxL0Byug9yU5Ul-100" value="" style="whiteSpace=wrap;html=1;shadow=0;gradientColor=none;gradientDirection=radial;glass=0;fillColor=#FFB570;fillStyle=auto;" parent="1" vertex="1">
          <mxGeometry x="920" y="345" width="10" height="120" as="geometry" />
        </mxCell>
        <mxCell id="HTVJt9KxL0Byug9yU5Ul-101" value="" style="whiteSpace=wrap;html=1;shadow=0;gradientColor=none;gradientDirection=radial;glass=0;fillColor=#FFB570;fillStyle=auto;" parent="1" vertex="1">
          <mxGeometry x="940" y="360" width="10" height="90" as="geometry" />
        </mxCell>
        <mxCell id="HTVJt9KxL0Byug9yU5Ul-102" value="" style="whiteSpace=wrap;html=1;shadow=0;gradientColor=none;gradientDirection=radial;glass=0;fillStyle=auto;fillColor=#FFB570;" parent="1" vertex="1">
          <mxGeometry x="960" y="370" width="10" height="70" as="geometry" />
        </mxCell>
        <mxCell id="HTVJt9KxL0Byug9yU5Ul-103" style="edgeStyle=orthogonalEdgeStyle;rounded=0;orthogonalLoop=1;jettySize=auto;html=1;exitX=0;exitY=0.5;exitDx=0;exitDy=0;startArrow=classic;startFill=1;endArrow=none;endFill=0;strokeWidth=2;" parent="1" edge="1">
          <mxGeometry relative="1" as="geometry">
            <mxPoint x="1005.5" y="404.99999999999994" as="sourcePoint" />
            <mxPoint x="980" y="404.99999999999994" as="targetPoint" />
          </mxGeometry>
        </mxCell>
        <mxCell id="HTVJt9KxL0Byug9yU5Ul-107" value="&lt;font style=&quot;font-size: 15px;&quot;&gt;Activation Updates&lt;/font&gt;&lt;div style=&quot;font-size: 15px;&quot;&gt;&lt;br&gt;&lt;/div&gt;" style="text;html=1;align=center;verticalAlign=middle;whiteSpace=wrap;rounded=0;" parent="1" vertex="1">
          <mxGeometry x="992.5" y="487.5" width="85" height="30" as="geometry" />
        </mxCell>
        <mxCell id="HTVJt9KxL0Byug9yU5Ul-108" value="" style="endArrow=classic;html=1;rounded=0;entryX=0.75;entryY=0;entryDx=0;entryDy=0;edgeStyle=orthogonalEdgeStyle;strokeWidth=2;" parent="1" target="HTVJt9KxL0Byug9yU5Ul-20" edge="1">
          <mxGeometry width="50" height="50" relative="1" as="geometry">
            <mxPoint x="470" y="405" as="sourcePoint" />
            <mxPoint x="560" y="525" as="targetPoint" />
            <Array as="points">
              <mxPoint x="470" y="605" />
            </Array>
          </mxGeometry>
        </mxCell>
        <mxCell id="HTVJt9KxL0Byug9yU5Ul-109" value="" style="rounded=0;whiteSpace=wrap;html=1;fillColor=#B3B3B3;" parent="1" vertex="1">
          <mxGeometry x="1108" y="340" width="32" height="130" as="geometry" />
        </mxCell>
        <mxCell id="HTVJt9KxL0Byug9yU5Ul-110" value="Activation Updater" style="text;html=1;align=center;verticalAlign=middle;whiteSpace=wrap;rounded=0;rotation=-90;" parent="1" vertex="1">
          <mxGeometry x="1070" y="390" width="110" height="30" as="geometry" />
        </mxCell>
        <mxCell id="HTVJt9KxL0Byug9yU5Ul-111" style="edgeStyle=orthogonalEdgeStyle;rounded=0;orthogonalLoop=1;jettySize=auto;html=1;exitX=0;exitY=0.5;exitDx=0;exitDy=0;startArrow=classic;startFill=1;endArrow=none;endFill=0;strokeWidth=2;" parent="1" edge="1">
          <mxGeometry relative="1" as="geometry">
            <mxPoint x="1098" y="404.99999999999994" as="sourcePoint" />
            <mxPoint x="1072.5" y="404.99999999999994" as="targetPoint" />
          </mxGeometry>
        </mxCell>
        <mxCell id="HTVJt9KxL0Byug9yU5Ul-112" style="edgeStyle=orthogonalEdgeStyle;rounded=0;orthogonalLoop=1;jettySize=auto;html=1;exitX=0;exitY=0.5;exitDx=0;exitDy=0;startArrow=classic;startFill=1;endArrow=none;endFill=0;strokeWidth=2;" parent="1" edge="1">
          <mxGeometry relative="1" as="geometry">
            <mxPoint x="1175.5" y="404.99999999999994" as="sourcePoint" />
            <mxPoint x="1150" y="404.99999999999994" as="targetPoint" />
          </mxGeometry>
        </mxCell>
        <mxCell id="HTVJt9KxL0Byug9yU5Ul-133" value="" style="shape=parallelogram;perimeter=parallelogramPerimeter;whiteSpace=wrap;html=1;fixedSize=1;rotation=90;size=10;fillColor=#7EA6E0;gradientColor=none;" parent="1" vertex="1">
          <mxGeometry x="1000" y="405" width="30" height="10" as="geometry" />
        </mxCell>
        <mxCell id="HTVJt9KxL0Byug9yU5Ul-134" value="" style="shape=parallelogram;perimeter=parallelogramPerimeter;whiteSpace=wrap;html=1;fixedSize=1;rotation=90;size=10;fillColor=#7EA6E0;gradientColor=none;" parent="1" vertex="1">
          <mxGeometry x="1020" y="405" width="30" height="10" as="geometry" />
        </mxCell>
        <mxCell id="HTVJt9KxL0Byug9yU5Ul-135" value="" style="shape=parallelogram;perimeter=parallelogramPerimeter;whiteSpace=wrap;html=1;fixedSize=1;rotation=90;size=10;fillColor=#7EA6E0;gradientColor=none;" parent="1" vertex="1">
          <mxGeometry x="1040" y="405" width="30" height="10" as="geometry" />
        </mxCell>
        <mxCell id="HTVJt9KxL0Byug9yU5Ul-136" value="" style="shape=parallelogram;perimeter=parallelogramPerimeter;whiteSpace=wrap;html=1;fixedSize=1;rotation=90;size=10;fillColor=#C3ABD0;gradientColor=none;" parent="1" vertex="1">
          <mxGeometry x="1099" y="560" width="30" height="10" as="geometry" />
        </mxCell>
        <mxCell id="HTVJt9KxL0Byug9yU5Ul-137" value="" style="shape=parallelogram;perimeter=parallelogramPerimeter;whiteSpace=wrap;html=1;fixedSize=1;rotation=90;size=10;fillColor=#C3ABD0;gradientColor=none;" parent="1" vertex="1">
          <mxGeometry x="1109" y="570" width="30" height="10" as="geometry" />
        </mxCell>
        <mxCell id="HTVJt9KxL0Byug9yU5Ul-138" value="" style="shape=parallelogram;perimeter=parallelogramPerimeter;whiteSpace=wrap;html=1;fixedSize=1;rotation=90;size=10;fillColor=#C3ABD0;gradientColor=none;" parent="1" vertex="1">
          <mxGeometry x="1119" y="580" width="30" height="10" as="geometry" />
        </mxCell>
        <mxCell id="HTVJt9KxL0Byug9yU5Ul-139" value="" style="shape=parallelogram;perimeter=parallelogramPerimeter;whiteSpace=wrap;html=1;fixedSize=1;rotation=90;size=10;fillColor=#C3ABD0;gradientColor=none;" parent="1" vertex="1">
          <mxGeometry x="1099" y="540" width="30" height="10" as="geometry" />
        </mxCell>
        <mxCell id="HTVJt9KxL0Byug9yU5Ul-140" value="" style="shape=parallelogram;perimeter=parallelogramPerimeter;whiteSpace=wrap;html=1;fixedSize=1;rotation=90;size=10;fillColor=#C3ABD0;gradientColor=none;" parent="1" vertex="1">
          <mxGeometry x="1109" y="550" width="30" height="10" as="geometry" />
        </mxCell>
        <mxCell id="HTVJt9KxL0Byug9yU5Ul-141" value="" style="shape=parallelogram;perimeter=parallelogramPerimeter;whiteSpace=wrap;html=1;fixedSize=1;rotation=90;size=10;fillColor=#C3ABD0;gradientColor=none;" parent="1" vertex="1">
          <mxGeometry x="1119" y="560" width="30" height="10" as="geometry" />
        </mxCell>
        <mxCell id="HTVJt9KxL0Byug9yU5Ul-142" value="" style="shape=parallelogram;perimeter=parallelogramPerimeter;whiteSpace=wrap;html=1;fixedSize=1;rotation=90;size=10;fillColor=#C3ABD0;gradientColor=none;" parent="1" vertex="1">
          <mxGeometry x="1099" y="520" width="30" height="10" as="geometry" />
        </mxCell>
        <mxCell id="HTVJt9KxL0Byug9yU5Ul-143" value="" style="shape=parallelogram;perimeter=parallelogramPerimeter;whiteSpace=wrap;html=1;fixedSize=1;rotation=90;size=10;fillColor=#C3ABD0;gradientColor=none;" parent="1" vertex="1">
          <mxGeometry x="1109" y="530" width="30" height="10" as="geometry" />
        </mxCell>
        <mxCell id="HTVJt9KxL0Byug9yU5Ul-144" value="" style="shape=parallelogram;perimeter=parallelogramPerimeter;whiteSpace=wrap;html=1;fixedSize=1;rotation=90;size=10;fillColor=#C3ABD0;gradientColor=none;" parent="1" vertex="1">
          <mxGeometry x="1119" y="540" width="30" height="10" as="geometry" />
        </mxCell>
        <mxCell id="HTVJt9KxL0Byug9yU5Ul-145" value="&lt;font style=&quot;font-size: 15px;&quot;&gt;Cached Activations&lt;/font&gt;" style="text;html=1;align=center;verticalAlign=middle;whiteSpace=wrap;rounded=0;" parent="1" vertex="1">
          <mxGeometry x="1020" y="585" width="101" height="30" as="geometry" />
        </mxCell>
        <mxCell id="HTVJt9KxL0Byug9yU5Ul-146" style="edgeStyle=orthogonalEdgeStyle;rounded=0;orthogonalLoop=1;jettySize=auto;html=1;startArrow=classic;startFill=1;endArrow=none;endFill=0;strokeWidth=2;" parent="1" edge="1">
          <mxGeometry relative="1" as="geometry">
            <mxPoint x="435.5" y="475.14" as="sourcePoint" />
            <mxPoint x="435.5" y="509.9999999999999" as="targetPoint" />
          </mxGeometry>
        </mxCell>
        <mxCell id="HTVJt9KxL0Byug9yU5Ul-147" style="edgeStyle=orthogonalEdgeStyle;rounded=0;orthogonalLoop=1;jettySize=auto;html=1;startArrow=classic;startFill=1;endArrow=none;endFill=0;" parent="1" edge="1">
          <mxGeometry relative="1" as="geometry">
            <mxPoint x="1124.8600000000001" y="475.14" as="sourcePoint" />
            <mxPoint x="1124.8600000000001" y="509.9999999999999" as="targetPoint" />
          </mxGeometry>
        </mxCell>
        <mxCell id="HTVJt9KxL0Byug9yU5Ul-148" value="" style="shape=parallelogram;perimeter=parallelogramPerimeter;whiteSpace=wrap;html=1;fixedSize=1;rotation=90;size=10;fillColor=#C3ABD0;gradientColor=none;" parent="1" vertex="1">
          <mxGeometry x="1178" y="420" width="30" height="10" as="geometry" />
        </mxCell>
        <mxCell id="HTVJt9KxL0Byug9yU5Ul-149" value="" style="shape=parallelogram;perimeter=parallelogramPerimeter;whiteSpace=wrap;html=1;fixedSize=1;rotation=90;size=10;fillColor=#7EA6E0;gradientColor=none;" parent="1" vertex="1">
          <mxGeometry x="1188" y="430" width="30" height="10" as="geometry" />
        </mxCell>
        <mxCell id="HTVJt9KxL0Byug9yU5Ul-150" value="" style="shape=parallelogram;perimeter=parallelogramPerimeter;whiteSpace=wrap;html=1;fixedSize=1;rotation=90;size=10;fillColor=#7EA6E0;gradientColor=none;" parent="1" vertex="1">
          <mxGeometry x="1198" y="440" width="30" height="10" as="geometry" />
        </mxCell>
        <mxCell id="HTVJt9KxL0Byug9yU5Ul-151" value="" style="shape=parallelogram;perimeter=parallelogramPerimeter;whiteSpace=wrap;html=1;fixedSize=1;rotation=90;size=10;fillColor=#C3ABD0;gradientColor=none;" parent="1" vertex="1">
          <mxGeometry x="1178" y="400" width="30" height="10" as="geometry" />
        </mxCell>
        <mxCell id="HTVJt9KxL0Byug9yU5Ul-152" value="" style="shape=parallelogram;perimeter=parallelogramPerimeter;whiteSpace=wrap;html=1;fixedSize=1;rotation=90;size=10;fillColor=#C3ABD0;gradientColor=none;" parent="1" vertex="1">
          <mxGeometry x="1188" y="410" width="30" height="10" as="geometry" />
        </mxCell>
        <mxCell id="HTVJt9KxL0Byug9yU5Ul-153" value="" style="shape=parallelogram;perimeter=parallelogramPerimeter;whiteSpace=wrap;html=1;fixedSize=1;rotation=90;size=10;fillColor=#7EA6E0;gradientColor=none;" parent="1" vertex="1">
          <mxGeometry x="1198" y="420" width="30" height="10" as="geometry" />
        </mxCell>
        <mxCell id="HTVJt9KxL0Byug9yU5Ul-154" value="" style="shape=parallelogram;perimeter=parallelogramPerimeter;whiteSpace=wrap;html=1;fixedSize=1;rotation=90;size=10;fillColor=#C3ABD0;gradientColor=none;" parent="1" vertex="1">
          <mxGeometry x="1178" y="380" width="30" height="10" as="geometry" />
        </mxCell>
        <mxCell id="HTVJt9KxL0Byug9yU5Ul-155" value="" style="shape=parallelogram;perimeter=parallelogramPerimeter;whiteSpace=wrap;html=1;fixedSize=1;rotation=90;size=10;fillColor=#C3ABD0;gradientColor=none;" parent="1" vertex="1">
          <mxGeometry x="1188" y="390" width="30" height="10" as="geometry" />
        </mxCell>
        <mxCell id="HTVJt9KxL0Byug9yU5Ul-156" value="" style="shape=parallelogram;perimeter=parallelogramPerimeter;whiteSpace=wrap;html=1;fixedSize=1;rotation=90;size=10;fillColor=#C3ABD0;gradientColor=none;" parent="1" vertex="1">
          <mxGeometry x="1198" y="400" width="30" height="10" as="geometry" />
        </mxCell>
        <mxCell id="HTVJt9KxL0Byug9yU5Ul-157" value="&lt;font style=&quot;font-size: 15px;&quot;&gt;Combied Activations&lt;/font&gt;" style="text;html=1;align=center;verticalAlign=middle;whiteSpace=wrap;rounded=0;" parent="1" vertex="1">
          <mxGeometry x="1148" y="480" width="110" height="30" as="geometry" />
        </mxCell>
        <mxCell id="HTVJt9KxL0Byug9yU5Ul-158" style="edgeStyle=orthogonalEdgeStyle;rounded=0;orthogonalLoop=1;jettySize=auto;html=1;exitX=0;exitY=0.5;exitDx=0;exitDy=0;startArrow=classic;startFill=1;endArrow=none;endFill=0;strokeWidth=2;" parent="1" edge="1">
          <mxGeometry relative="1" as="geometry">
            <mxPoint x="1257.5" y="405" as="sourcePoint" />
            <mxPoint x="1232" y="405" as="targetPoint" />
          </mxGeometry>
        </mxCell>
        <mxCell id="HTVJt9KxL0Byug9yU5Ul-159" value="" style="endArrow=classic;html=1;rounded=0;edgeStyle=orthogonalEdgeStyle;strokeWidth=2;" parent="1" edge="1">
          <mxGeometry width="50" height="50" relative="1" as="geometry">
            <mxPoint x="1242" y="405.1" as="sourcePoint" />
            <mxPoint x="1160" y="570" as="targetPoint" />
            <Array as="points">
              <mxPoint x="1242" y="570" />
            </Array>
          </mxGeometry>
        </mxCell>
        <mxCell id="HTVJt9KxL0Byug9yU5Ul-160" value="&lt;font style=&quot;font-size: 15px;&quot;&gt;Remaining Inference&lt;/font&gt;" style="text;html=1;align=center;verticalAlign=middle;whiteSpace=wrap;rounded=0;" parent="1" vertex="1">
          <mxGeometry x="1258" y="475" width="85" height="30" as="geometry" />
        </mxCell>
        <mxCell id="HTVJt9KxL0Byug9yU5Ul-161" value="" style="whiteSpace=wrap;html=1;shadow=0;gradientColor=none;gradientDirection=radial;glass=0;fillColor=#FFB570;fillStyle=auto;" parent="1" vertex="1">
          <mxGeometry x="1275.5" y="370" width="10" height="70" as="geometry" />
        </mxCell>
        <mxCell id="HTVJt9KxL0Byug9yU5Ul-162" value="" style="whiteSpace=wrap;html=1;shadow=0;gradientColor=none;gradientDirection=radial;glass=0;fillColor=#FFB570;fillStyle=auto;" parent="1" vertex="1">
          <mxGeometry x="1295.5" y="377.5" width="10" height="55" as="geometry" />
        </mxCell>
        <mxCell id="HTVJt9KxL0Byug9yU5Ul-163" value="" style="whiteSpace=wrap;html=1;shadow=0;gradientColor=none;gradientDirection=radial;glass=0;fillStyle=auto;fillColor=#FFB570;" parent="1" vertex="1">
          <mxGeometry x="1315.5" y="387.5" width="10" height="35" as="geometry" />
        </mxCell>
        <mxCell id="HTVJt9KxL0Byug9yU5Ul-164" value="" style="rounded=0;whiteSpace=wrap;html=1;" parent="1" vertex="1">
          <mxGeometry x="1381" y="340" width="32" height="130" as="geometry" />
        </mxCell>
        <mxCell id="HTVJt9KxL0Byug9yU5Ul-165" value="Inference Result" style="text;html=1;align=center;verticalAlign=middle;whiteSpace=wrap;rounded=0;rotation=-90;" parent="1" vertex="1">
          <mxGeometry x="1343" y="390" width="108" height="30" as="geometry" />
        </mxCell>
        <mxCell id="HTVJt9KxL0Byug9yU5Ul-166" style="edgeStyle=orthogonalEdgeStyle;rounded=0;orthogonalLoop=1;jettySize=auto;html=1;startArrow=classic;startFill=1;endArrow=none;endFill=0;strokeWidth=2;" parent="1" edge="1">
          <mxGeometry relative="1" as="geometry">
            <mxPoint x="1370" y="405" as="sourcePoint" />
            <mxPoint x="1330" y="404.99999999999994" as="targetPoint" />
          </mxGeometry>
        </mxCell>
        <mxCell id="HTVJt9KxL0Byug9yU5Ul-168" value="&lt;font style=&quot;font-size: 20px;&quot;&gt;&lt;b&gt;CacheInf Executer&lt;/b&gt;&lt;/font&gt;" style="text;html=1;align=center;verticalAlign=middle;whiteSpace=wrap;rounded=0;" parent="1" vertex="1">
          <mxGeometry x="698.5" y="585" width="223" height="30" as="geometry" />
        </mxCell>
        <mxCell id="HTVJt9KxL0Byug9yU5Ul-172" value="&lt;font style=&quot;font-size: 20px;&quot;&gt;&lt;b&gt;ROBOT&lt;/b&gt;&lt;/font&gt;" style="text;html=1;align=center;verticalAlign=middle;whiteSpace=wrap;rounded=0;" parent="1" vertex="1">
          <mxGeometry x="455" y="570" width="223" height="30" as="geometry" />
        </mxCell>
        <mxCell id="HTVJt9KxL0Byug9yU5Ul-173" value="" style="rounded=1;whiteSpace=wrap;html=1;" parent="1" vertex="1">
          <mxGeometry x="827" y="130" width="320" height="130" as="geometry" />
        </mxCell>
        <mxCell id="HTVJt9KxL0Byug9yU5Ul-174" value="&lt;font style=&quot;font-size: 20px;&quot;&gt;&lt;b&gt;GPU SERVER&lt;/b&gt;&lt;/font&gt;" style="text;html=1;align=center;verticalAlign=middle;whiteSpace=wrap;rounded=0;" parent="1" vertex="1">
          <mxGeometry x="868.25" y="135" width="220.5" height="30" as="geometry" />
        </mxCell>
        <mxCell id="HTVJt9KxL0Byug9yU5Ul-178" style="edgeStyle=orthogonalEdgeStyle;rounded=0;orthogonalLoop=1;jettySize=auto;html=1;exitX=1;exitY=0.5;exitDx=0;exitDy=0;entryX=0.5;entryY=0;entryDx=0;entryDy=0;strokeWidth=2;" parent="1" source="HTVJt9KxL0Byug9yU5Ul-175" target="HTVJt9KxL0Byug9yU5Ul-164" edge="1">
          <mxGeometry relative="1" as="geometry" />
        </mxCell>
        <mxCell id="HTVJt9KxL0Byug9yU5Ul-175" value="" style="whiteSpace=wrap;html=1;dashed=1;strokeWidth=4;" parent="1" vertex="1">
          <mxGeometry x="850" y="180" width="282" height="60" as="geometry" />
        </mxCell>
        <mxCell id="HTVJt9KxL0Byug9yU5Ul-176" value="&lt;font style=&quot;font-size: 20px;&quot;&gt;&lt;b&gt;CacheInf Executer&lt;/b&gt;&lt;/font&gt;" style="text;html=1;align=center;verticalAlign=middle;whiteSpace=wrap;rounded=0;" parent="1" vertex="1">
          <mxGeometry x="867" y="195" width="223" height="30" as="geometry" />
        </mxCell>
        <mxCell id="HTVJt9KxL0Byug9yU5Ul-177" style="edgeStyle=orthogonalEdgeStyle;rounded=0;orthogonalLoop=1;jettySize=auto;html=1;exitX=0.5;exitY=0;exitDx=0;exitDy=0;entryX=0;entryY=0.5;entryDx=0;entryDy=0;strokeWidth=2;" parent="1" source="HTVJt9KxL0Byug9yU5Ul-55" target="HTVJt9KxL0Byug9yU5Ul-175" edge="1">
          <mxGeometry relative="1" as="geometry" />
        </mxCell>
        <mxCell id="HTVJt9KxL0Byug9yU5Ul-180" value="" style="whiteSpace=wrap;html=1;aspect=fixed;fillColor=#D5E8D4;" parent="1" vertex="1">
          <mxGeometry x="322.25" y="145" width="20" height="20" as="geometry" />
        </mxCell>
        <mxCell id="HTVJt9KxL0Byug9yU5Ul-181" value="Cached Receptive Field" style="text;html=1;align=center;verticalAlign=middle;whiteSpace=wrap;rounded=0;" parent="1" vertex="1">
          <mxGeometry x="350.25" y="140" width="98" height="30" as="geometry" />
        </mxCell>
        <mxCell id="HTVJt9KxL0Byug9yU5Ul-182" value="" style="whiteSpace=wrap;html=1;aspect=fixed;fillColor=#F8CECC;" parent="1" vertex="1">
          <mxGeometry x="322.25" y="180" width="20" height="20" as="geometry" />
        </mxCell>
        <mxCell id="HTVJt9KxL0Byug9yU5Ul-183" value="Recomputed Receptive Field" style="text;html=1;align=center;verticalAlign=middle;whiteSpace=wrap;rounded=0;" parent="1" vertex="1">
          <mxGeometry x="350.25" y="175" width="98" height="30" as="geometry" />
        </mxCell>
        <mxCell id="HTVJt9KxL0Byug9yU5Ul-184" value="" style="whiteSpace=wrap;html=1;aspect=fixed;fillColor=#7EA6E0;" parent="1" vertex="1">
          <mxGeometry x="450.75" y="145" width="20" height="20" as="geometry" />
        </mxCell>
        <mxCell id="HTVJt9KxL0Byug9yU5Ul-185" value="Cached Activation" style="text;html=1;align=center;verticalAlign=middle;whiteSpace=wrap;rounded=0;" parent="1" vertex="1">
          <mxGeometry x="478.75" y="140" width="98" height="30" as="geometry" />
        </mxCell>
        <mxCell id="HTVJt9KxL0Byug9yU5Ul-186" value="" style="whiteSpace=wrap;html=1;aspect=fixed;fillColor=#C3ABD0;" parent="1" vertex="1">
          <mxGeometry x="450.75" y="180" width="20" height="20" as="geometry" />
        </mxCell>
        <mxCell id="HTVJt9KxL0Byug9yU5Ul-187" value="Recomputed Activation" style="text;html=1;align=center;verticalAlign=middle;whiteSpace=wrap;rounded=0;" parent="1" vertex="1">
          <mxGeometry x="478.75" y="175" width="98" height="30" as="geometry" />
        </mxCell>
        <mxCell id="HTVJt9KxL0Byug9yU5Ul-188" value="" style="whiteSpace=wrap;html=1;aspect=fixed;fillColor=#FFB570;" parent="1" vertex="1">
          <mxGeometry x="322.25" y="210" width="20" height="20" as="geometry" />
        </mxCell>
        <mxCell id="HTVJt9KxL0Byug9yU5Ul-189" value="Model Layer during Inference Process" style="text;html=1;align=center;verticalAlign=middle;whiteSpace=wrap;rounded=0;" parent="1" vertex="1">
          <mxGeometry x="356.25" y="205" width="206" height="30" as="geometry" />
        </mxCell>
        <mxCell id="HTVJt9KxL0Byug9yU5Ul-190" value="" style="whiteSpace=wrap;html=1;aspect=fixed;fillColor=#B3B3B3;" parent="1" vertex="1">
          <mxGeometry x="322.25" y="240" width="20" height="20" as="geometry" />
        </mxCell>
        <mxCell id="HTVJt9KxL0Byug9yU5Ul-191" value="Core Component of CacheInf" style="text;html=1;align=center;verticalAlign=middle;whiteSpace=wrap;rounded=0;" parent="1" vertex="1">
          <mxGeometry x="356.25" y="235" width="206" height="30" as="geometry" />
        </mxCell>
      </root>
    </mxGraphModel>
  </diagram>
</mxfile>
